<?xml version="1.0" encoding="iso-8859-1"?>
<!-- Generator: Adobe Illustrator 18.0.0, SVG Export Plug-In . SVG Version: 6.00 Build 0)  -->
<!DOCTYPE svg PUBLIC "-//W3C//DTD SVG 1.1//EN" "http://www.w3.org/Graphics/SVG/1.1/DTD/svg11.dtd">
<svg version="1.1" id="Capa_1" xmlns="http://www.w3.org/2000/svg" xmlns:xlink="http://www.w3.org/1999/xlink" x="0px" y="0px"
	 viewBox="0 0 457.562 457.562" style="enable-background:new 0 0 457.562 457.562;" xml:space="preserve">
<g>
	<path d="M347.029,83.568c33.149,0,60.119-26.969,60.119-60.119V10c0-5.523-4.477-10-10-10H60.415c-5.523,0-10,4.477-10,10v13.45
		c0,33.149,26.969,60.119,60.119,60.119h108.248v17.261H85.893c-19.563,0-35.479,15.916-35.479,35.479v285.776
		c0,19.563,15.916,35.479,35.479,35.479h285.776c19.563,0,35.479-15.916,35.479-35.479V136.308
		c0-19.563-15.916-35.479-35.479-35.479H238.781V83.568H347.029z M387.147,136.308v285.776c0,8.535-6.944,15.479-15.479,15.479
		H85.893c-8.535,0-15.479-6.944-15.479-15.479V136.308c0-8.535,6.944-15.479,15.479-15.479h285.776
		C380.204,120.829,387.147,127.773,387.147,136.308z M70.415,23.45V20h316.733v3.45c0,22.122-17.997,40.119-40.119,40.119H110.533
		C88.412,63.568,70.415,45.571,70.415,23.45z"/>
	<path d="M228.781,412.903c73.727,0,133.708-59.981,133.708-133.708c0-73.727-59.981-133.708-133.708-133.708
		c-73.727,0-133.708,59.981-133.708,133.708C95.073,352.922,155.054,412.903,228.781,412.903z M163.509,186.142l6.624,11.473
		c1.852,3.208,5.213,5.001,8.669,5.001c1.696,0,3.416-0.432,4.991-1.341c4.783-2.761,6.422-8.877,3.66-13.66l-6.639-11.499
		c11.714-5.473,24.507-9.005,37.966-10.183v13.288c0,5.523,4.477,10,10,10s10-4.477,10-10v-13.288
		c13.459,1.178,26.252,4.71,37.966,10.183l-6.639,11.499c-2.762,4.783-1.123,10.899,3.66,13.66c1.575,0.909,3.294,1.341,4.991,1.341
		c3.456,0,6.817-1.793,8.669-5.001l6.624-11.473c10.784,7.587,20.195,16.998,27.782,27.782l-11.473,6.624
		c-4.783,2.761-6.422,8.877-3.66,13.66c1.852,3.208,5.213,5.001,8.669,5.001c1.696,0,3.416-0.432,4.991-1.341l11.499-6.639
		c5.473,11.714,9.005,24.507,10.183,37.966h-13.288c-5.523,0-10,4.477-10,10s4.477,10,10,10h13.288
		c-1.178,13.459-4.71,26.252-10.183,37.966l-11.499-6.639c-4.785-2.762-10.899-1.123-13.66,3.66
		c-2.762,4.783-1.123,10.899,3.66,13.66l11.473,6.624c-20.593,29.271-54.625,48.436-93.054,48.436s-72.461-19.165-93.054-48.436
		l11.473-6.624c4.783-2.761,6.422-8.877,3.66-13.66c-2.761-4.783-8.878-6.422-13.66-3.66l-11.499,6.639
		c-5.473-11.714-9.005-24.507-10.183-37.966h13.288c5.523,0,10-4.477,10-10s-4.477-10-10-10h-13.288
		c1.178-13.459,4.71-26.252,10.183-37.966l11.499,6.639c1.575,0.909,3.294,1.341,4.991,1.341c3.456,0,6.817-1.793,8.669-5.001
		c2.762-4.783,1.123-10.899-3.66-13.66l-11.473-6.624C143.314,203.14,152.725,193.729,163.509,186.142z"/>
	<path d="M228.781,289.196c5.523,0,10-4.477,10-10v-48.513c0-5.523-4.477-10-10-10s-10,4.477-10,10v48.513
		C218.781,284.719,223.258,289.196,228.781,289.196z"/>
</g>
<g>
</g>
<g>
</g>
<g>
</g>
<g>
</g>
<g>
</g>
<g>
</g>
<g>
</g>
<g>
</g>
<g>
</g>
<g>
</g>
<g>
</g>
<g>
</g>
<g>
</g>
<g>
</g>
<g>
</g>
</svg>
