<svg xmlns="http://www.w3.org/2000/svg" xmlns:xlink="http://www.w3.org/1999/xlink" viewBox="0 0 242.5 51.4">
    <path id="Path_81" data-name="Path 81" class="cls-2" fill="#eb212e" clip-path="url(#clip-path)" d="M242.2,51.3a.789.789,0,0,0,.8-.8V45.2a.789.789,0,0,0-.8-.8h-7.1c-1.7,0-6-.1-8.4-1.3a5.231,5.231,0,0,1-1.8-1.3,2.73,2.73,0,0,1-.5-1.8V.8a.789.789,0,0,0-.8-.8H208.2a.789.789,0,0,0-.8.8V38.7a10.257,10.257,0,0,0,1.3,5.2,11.547,11.547,0,0,0,4.3,3.8c5.8,3.2,16.1,3.5,20.1,3.5h9.1"/>
    <path id="Path_83" data-name="Path 83" class="cls-2" fill="#eb212e" d="M35.6,51a.789.789,0,0,0,.8-.8V7H55.1a.789.789,0,0,0,.8-.8V.9a.789.789,0,0,0-.8-.8H.8C.3.2,0,.5,0,.9V6.2A.736.736,0,0,0,.8,7H19.5V50.3a.789.789,0,0,0,.8.8H35.6"/>
    <path id="Path_84" data-name="Path 84" class="cls-2" fill="#eb212e" d="M86.6,25.7a3.453,3.453,0,0,1-.5,1.8,4.2,4.2,0,0,1-1.8,1.3c-2.4,1.2-6.8,1.3-8.4,1.3H62.4V24.2a3.453,3.453,0,0,1,.5-1.8,4.2,4.2,0,0,1,1.8-1.3c2.4-1.2,6.8-1.3,8.4-1.3h2.7c1.7,0,6,.1,8.4,1.3A5.231,5.231,0,0,1,86,22.4a2.73,2.73,0,0,1,.5,1.8v1.5M103.3,51a.789.789,0,0,0,.8-.8V45a.789.789,0,0,0-.8-.8H73.1c-1.7,0-6-.1-8.4-1.3a5.231,5.231,0,0,1-1.8-1.3,2.73,2.73,0,0,1-.5-1.8V37H77.8c4,0,14.6-.2,20.4-3.1a12.386,12.386,0,0,0,4.3-3.2c2-2.7,2.2-8,0-10.9a10.543,10.543,0,0,0-4.3-3.2c-5.8-2.9-16.4-3.1-20.4-3.1H71.2c-4,0-14.6.3-20.4,3.2a11.789,11.789,0,0,0-4.3,3.5,7.574,7.574,0,0,0-1.3,4.6V39.9a7.377,7.377,0,0,0,1.3,4.6A11.95,11.95,0,0,0,50.8,48c5.8,2.9,16.4,3.2,20.4,3.2h32.1Z"/>
    <path id="Path_85" data-name="Path 85" class="cls-2" fill="#eb212e" d="M181.5,40.5a3.453,3.453,0,0,1-.5,1.8,4.2,4.2,0,0,1-1.8,1.3c-2.4,1.2-6.8,1.3-8.4,1.3h-2.7c-1.7,0-6-.1-8.4-1.3a5.231,5.231,0,0,1-1.8-1.3,2.73,2.73,0,0,1-.5-1.8V38.8a3.453,3.453,0,0,1,.5-1.8,4.2,4.2,0,0,1,1.8-1.3c2.4-1.2,6.8-1.3,8.4-1.3h13.5v6.1m15.8-20.2a11.95,11.95,0,0,0-4.3-3.5c-5.8-2.9-16.4-3.2-20.4-3.2H146.4a.789.789,0,0,0-.8.8v5.3a.789.789,0,0,0,.8.8h24.4c1.7,0,6,.1,8.4,1.3a5.231,5.231,0,0,1,1.8,1.3,2.73,2.73,0,0,1,.5,1.8v2.5H166.1c-4,0-14.6.2-20.4,3.1a12.386,12.386,0,0,0-4.3,3.2c-2.1,2.9-2.2,8.3,0,11.2a10.542,10.542,0,0,0,4.3,3.2c5.8,2.9,16.4,3.1,20.4,3.1h6.6c4,0,14.6-.3,20.4-3.2a11.789,11.789,0,0,0,4.3-3.5,7.574,7.574,0,0,0,1.3-4.6V25A7.888,7.888,0,0,0,197.4,20.3Z"/>
    <path id="Path_86" data-name="Path 86" class="cls-2" fill="#eb212e" d="M233.5,3h.4l.8,1.2h.6L234.5,3c.5-.1.8-.4.8-.8a.839.839,0,0,0-.9-.9H233V4.2h.5V3m0-.5V1.7h.6c.3,0,.6,0,.6.4s-.2.4-.6.4h-.6"/>
    <path id="Path_87" data-name="Path 87" class="cls-2" fill="#eb212e" d="M234,4.9a2.22,2.22,0,0,1-2.2-2.2,2.2,2.2,0,1,1,4.4,0A2.22,2.22,0,0,1,234,4.9M234,0a2.7,2.7,0,1,0,2.7,2.7A2.689,2.689,0,0,0,234,0"/>
    <path id="Path_88" data-name="Path 88" class="cls-2" fill="#eb212e" d="M111.3,50.3a.789.789,0,0,0,.8.8h15.4a.789.789,0,0,0,.8-.8V20.5h9.4a.789.789,0,0,0,.8-.8V14.4a.789.789,0,0,0-.8-.8h-9.4V11.2a3.2,3.2,0,0,1,.5-1.8,4.2,4.2,0,0,1,1.8-1.3c2.4-1.2,7.1-1.3,8.7-1.3h6.8a.789.789,0,0,0,.8-.8V.8a.789.789,0,0,0-.8-.8h-8.7c-4,0-14.6.3-20.4,3.5a12.389,12.389,0,0,0-4.3,3.8,9.666,9.666,0,0,0-1.3,5.6V50.3"/>
</svg>
