<?xml version="1.0" encoding="iso-8859-1"?>
<!-- Generator: Adobe Illustrator 17.1.0, SVG Export Plug-In . SVG Version: 6.00 Build 0)  -->
<!DOCTYPE svg PUBLIC "-//W3C//DTD SVG 1.1//EN" "http://www.w3.org/Graphics/SVG/1.1/DTD/svg11.dtd">
<svg version="1.1" id="Capa_1" xmlns="http://www.w3.org/2000/svg" xmlns:xlink="http://www.w3.org/1999/xlink" x="0px" y="0px"
	 viewBox="0 0 198.618 198.618" style="enable-background:new 0 0 198.618 198.618;" xml:space="preserve">
<path d="M179.677,60.2c-0.189,16.208-4.939,42.192-26.495,73.936c-38.295,56.396-82.312,63.466-90.747,64.311
	c-0.027,0.003-0.128,0.012-0.155,0.015c-0.338,0.032-0.566,0.049-0.682,0.057c-0.859,0.066-1.728,0.101-2.581,0.101
	c-4.827,0-9.526-1.061-13.821-3.095c-1.708,0.76-3.58,1.169-5.507,1.169c-2.716,0-5.341-0.808-7.592-2.336l-2.839-1.929
	c-5.202-3.532-8.718-8.88-9.898-15.057c-1.181-6.178,0.115-12.445,3.648-17.648l17.58-25.888c4.388-6.462,11.675-10.32,19.493-10.32
	c4.724,0,9.293,1.406,13.212,4.067l2.839,1.929c2.987,2.027,5.007,5.099,5.685,8.647c0.198,1.037,0.275,2.078,0.233,3.108
	c1.84,1.724,3.475,3.662,4.868,5.767c8.251-5.367,22.593-16.138,33.288-31.887c10.569-15.564,14.706-31.64,16.292-40.675
	c-2.568-0.516-5.061-1.341-7.43-2.464c-1.708,0.761-3.58,1.169-5.507,1.169c-2.715,0-5.34-0.807-7.59-2.334l-2.84-1.93
	c-5.202-3.532-8.718-8.88-9.898-15.057c-1.181-6.178,0.115-12.445,3.648-17.648l17.58-25.889C128.848,3.857,136.135,0,143.953,0
	c4.725,0,9.293,1.406,13.212,4.068l2.837,1.926c4.009,2.723,6.093,7.234,5.912,11.753c3.993,3.74,7.01,8.472,8.707,13.724
	c0.758,1.558,1.638,3.903,2.591,7.502C178.936,45.481,179.765,52.624,179.677,60.2z"/>
<g>
</g>
<g>
</g>
<g>
</g>
<g>
</g>
<g>
</g>
<g>
</g>
<g>
</g>
<g>
</g>
<g>
</g>
<g>
</g>
<g>
</g>
<g>
</g>
<g>
</g>
<g>
</g>
<g>
</g>
</svg>
