<?xml version="1.0" encoding="iso-8859-1"?>
<!-- Generator: Adobe Illustrator 18.0.0, SVG Export Plug-In . SVG Version: 6.00 Build 0)  -->
<!DOCTYPE svg PUBLIC "-//W3C//DTD SVG 1.1//EN" "http://www.w3.org/Graphics/SVG/1.1/DTD/svg11.dtd">
<svg version="1.1" id="Capa_1" xmlns="http://www.w3.org/2000/svg" xmlns:xlink="http://www.w3.org/1999/xlink" x="0px" y="0px"
	 viewBox="0 0 57.001 57.001" style="enable-background:new 0 0 57.001 57.001;" xml:space="preserve">
<g>
	<path d="M41.968,24.05v-2.808c3.809-2.266,5.658-6.697,4.847-11.724c-0.802-4.972-4.873-8.854-9.898-9.439
		c-1.359-0.157-2.705-0.079-4.011,0.233c-2.864,0.687-5.895,0.688-8.761,0c-1.551-0.372-3.153-0.412-4.76-0.122
		c-4.688,0.849-8.362,4.576-9.141,9.276c-0.783,4.727,1.105,9.223,4.831,11.592v2.989C9.441,24.526,5,29.257,5,35.013v10.987v7h2
		c0,2.206,1.794,4,4,4s4-1.794,4-4h27c0,2.206,1.794,4,4,4s4-1.794,4-4h2v-7V35.013C52,29.272,47.582,24.549,41.968,24.05z
		 M12.217,9.794c0.632-3.808,3.726-6.947,7.523-7.634c1.334-0.241,2.659-0.209,3.938,0.099c3.172,0.76,6.522,0.761,9.694,0
		C34.449,2,35.566,1.935,36.684,2.066c4.143,0.483,7.496,3.679,8.156,7.771c0.707,4.377-0.953,8.182-4.331,9.929
		c-0.332,0.172-0.541,0.515-0.541,0.889v3.346H17.075v-3.385c0-0.434-0.233-0.836-0.608-1.051
		C13.162,17.661,11.534,13.917,12.217,9.794z M11,55.001c-1.103,0-2-0.897-2-2h4C13,54.103,12.103,55.001,11,55.001z M46,55.001
		c-1.103,0-2-0.897-2-2h4C48,54.103,47.103,55.001,46,55.001z M50,51.001h-8H15H7v-3h43V51.001z M7,46.001V35.013
		c0-4.97,4.043-9.013,9.013-9.013h0.063h24.893h0.02c4.97,0,9.013,4.043,9.013,9.013v10.987H7z"/>
	<path d="M18,32.001h-1v-2c0-0.553-0.447-1-1-1c-0.553,0-1,0.447-1,1v2h-1c-1.654,0-3,1.346-3,3s1.346,3,3,3h1v4
		c0,0.553,0.447,1,1,1c0.553,0,1-0.447,1-1v-4h1c1.654,0,3-1.346,3-3S19.655,32.001,18,32.001z M18,36.001h-4c-0.552,0-1-0.448-1-1
		s0.448-1,1-1h4c0.552,0,1,0.448,1,1S18.552,36.001,18,36.001z"/>
	<path d="M17.707,13.708l6.5-6.5c0.391-0.391,0.391-1.023,0-1.414s-1.023-0.391-1.414,0l-6.5,6.5c-0.391,0.391-0.391,1.023,0,1.414
		c0.195,0.195,0.451,0.293,0.707,0.293S17.512,13.903,17.707,13.708z"/>
	<path d="M18.293,19.708c0.195,0.195,0.451,0.293,0.707,0.293s0.512-0.098,0.707-0.293l14-14c0.391-0.391,0.391-1.023,0-1.414
		s-1.023-0.391-1.414,0l-14,14C17.903,18.684,17.903,19.317,18.293,19.708z"/>
	<path d="M23.293,22.708c0.195,0.195,0.451,0.293,0.707,0.293s0.512-0.098,0.707-0.293l15-15c0.391-0.391,0.391-1.023,0-1.414
		s-1.023-0.391-1.414,0l-15,15C22.903,21.684,22.903,22.317,23.293,22.708z"/>
	<path d="M38.793,13.794l-7.5,7.5c-0.391,0.391-0.391,1.023,0,1.414c0.195,0.195,0.451,0.293,0.707,0.293s0.512-0.098,0.707-0.293
		l7.5-7.5c0.391-0.391,0.391-1.023,0-1.414S39.184,13.403,38.793,13.794z"/>
</g>
<g>
</g>
<g>
</g>
<g>
</g>
<g>
</g>
<g>
</g>
<g>
</g>
<g>
</g>
<g>
</g>
<g>
</g>
<g>
</g>
<g>
</g>
<g>
</g>
<g>
</g>
<g>
</g>
<g>
</g>
</svg>
